<mxfile host="app.diagrams.net" agent="Mozilla/5.0 (Windows NT 10.0; Win64; x64) AppleWebKit/537.36 (KHTML, like Gecko) Chrome/138.0.0.0 Safari/537.36 Edg/138.0.0.0" version="27.2.0">
  <diagram name="PÃ¡gina-1" id="Rn7OdRzO2CIRXvN16hDt">
    <mxGraphModel grid="1" page="1" gridSize="10" guides="1" tooltips="1" connect="1" arrows="1" fold="1" pageScale="1" pageWidth="827" pageHeight="1169" math="0" shadow="0">
      <root>
        <mxCell id="0" />
        <mxCell id="1" parent="0" />
        <mxCell id="a23xOZSOgzIgh4aSkICn-7" style="edgeStyle=orthogonalEdgeStyle;rounded=0;orthogonalLoop=1;jettySize=auto;html=1;entryX=0.5;entryY=1;entryDx=0;entryDy=0;" edge="1" parent="1" source="a23xOZSOgzIgh4aSkICn-3" target="a23xOZSOgzIgh4aSkICn-4">
          <mxGeometry relative="1" as="geometry" />
        </mxCell>
        <mxCell id="a23xOZSOgzIgh4aSkICn-8" style="edgeStyle=orthogonalEdgeStyle;rounded=0;orthogonalLoop=1;jettySize=auto;html=1;entryX=0.5;entryY=1;entryDx=0;entryDy=0;" edge="1" parent="1" source="a23xOZSOgzIgh4aSkICn-3" target="a23xOZSOgzIgh4aSkICn-5">
          <mxGeometry relative="1" as="geometry">
            <mxPoint x="414" y="80" as="targetPoint" />
          </mxGeometry>
        </mxCell>
        <mxCell id="a23xOZSOgzIgh4aSkICn-54" style="edgeStyle=orthogonalEdgeStyle;rounded=0;orthogonalLoop=1;jettySize=auto;html=1;entryX=0.5;entryY=0;entryDx=0;entryDy=0;fillColor=#60a917;strokeColor=#2D7600;" edge="1" parent="1" source="a23xOZSOgzIgh4aSkICn-3" target="a23xOZSOgzIgh4aSkICn-12">
          <mxGeometry relative="1" as="geometry" />
        </mxCell>
        <mxCell id="a23xOZSOgzIgh4aSkICn-3" value="&lt;font style=&quot;font-size: 18px;&quot;&gt;users&lt;/font&gt;" style="rounded=0;whiteSpace=wrap;html=1;" vertex="1" parent="1">
          <mxGeometry x="364" y="100" width="100" height="50" as="geometry" />
        </mxCell>
        <mxCell id="a23xOZSOgzIgh4aSkICn-4" value="&lt;font style=&quot;font-size: 18px;&quot;&gt;username&lt;/font&gt;" style="ellipse;whiteSpace=wrap;html=1;" vertex="1" parent="1">
          <mxGeometry x="250" y="10" width="100" height="60" as="geometry" />
        </mxCell>
        <mxCell id="a23xOZSOgzIgh4aSkICn-5" value="&lt;font style=&quot;font-size: 18px;&quot;&gt;password&lt;/font&gt;" style="ellipse;whiteSpace=wrap;html=1;" vertex="1" parent="1">
          <mxGeometry x="364" y="10" width="100" height="60" as="geometry" />
        </mxCell>
        <mxCell id="a23xOZSOgzIgh4aSkICn-6" value="&lt;font style=&quot;font-size: 18px;&quot;&gt;role&lt;/font&gt;" style="ellipse;whiteSpace=wrap;html=1;" vertex="1" parent="1">
          <mxGeometry x="480" y="10" width="100" height="60" as="geometry" />
        </mxCell>
        <mxCell id="a23xOZSOgzIgh4aSkICn-10" style="edgeStyle=orthogonalEdgeStyle;rounded=0;orthogonalLoop=1;jettySize=auto;html=1;entryX=0.6;entryY=1.017;entryDx=0;entryDy=0;entryPerimeter=0;" edge="1" parent="1" source="a23xOZSOgzIgh4aSkICn-3" target="a23xOZSOgzIgh4aSkICn-6">
          <mxGeometry relative="1" as="geometry" />
        </mxCell>
        <mxCell id="a23xOZSOgzIgh4aSkICn-53" style="edgeStyle=orthogonalEdgeStyle;rounded=0;orthogonalLoop=1;jettySize=auto;html=1;fillColor=#60a917;strokeColor=#2D7600;entryX=0.993;entryY=0.64;entryDx=0;entryDy=0;entryPerimeter=0;" edge="1" parent="1" source="a23xOZSOgzIgh4aSkICn-12" target="a23xOZSOgzIgh4aSkICn-16">
          <mxGeometry relative="1" as="geometry">
            <mxPoint x="-10" y="310" as="targetPoint" />
            <Array as="points">
              <mxPoint x="290" y="275" />
              <mxPoint x="290" y="310" />
              <mxPoint x="-40" y="310" />
            </Array>
          </mxGeometry>
        </mxCell>
        <mxCell id="a23xOZSOgzIgh4aSkICn-167" style="edgeStyle=orthogonalEdgeStyle;rounded=0;orthogonalLoop=1;jettySize=auto;html=1;fillColor=#60a917;strokeColor=#2D7600;" edge="1" parent="1" source="a23xOZSOgzIgh4aSkICn-12">
          <mxGeometry relative="1" as="geometry">
            <mxPoint x="800" y="280" as="targetPoint" />
          </mxGeometry>
        </mxCell>
        <mxCell id="a23xOZSOgzIgh4aSkICn-12" value="&lt;font style=&quot;font-size: 18px;&quot;&gt;contains&lt;/font&gt;" style="rhombus;whiteSpace=wrap;html=1;" vertex="1" parent="1">
          <mxGeometry x="366" y="235" width="96" height="90" as="geometry" />
        </mxCell>
        <mxCell id="a23xOZSOgzIgh4aSkICn-14" style="edgeStyle=orthogonalEdgeStyle;rounded=0;orthogonalLoop=1;jettySize=auto;html=1;entryX=0.5;entryY=1;entryDx=0;entryDy=0;" edge="1" parent="1" source="a23xOZSOgzIgh4aSkICn-16" target="a23xOZSOgzIgh4aSkICn-17">
          <mxGeometry relative="1" as="geometry">
            <Array as="points">
              <mxPoint x="-108" y="245" />
              <mxPoint x="-280" y="245" />
            </Array>
          </mxGeometry>
        </mxCell>
        <mxCell id="a23xOZSOgzIgh4aSkICn-15" style="edgeStyle=orthogonalEdgeStyle;rounded=0;orthogonalLoop=1;jettySize=auto;html=1;entryX=0.5;entryY=1;entryDx=0;entryDy=0;" edge="1" parent="1" source="a23xOZSOgzIgh4aSkICn-16" target="a23xOZSOgzIgh4aSkICn-18">
          <mxGeometry relative="1" as="geometry">
            <mxPoint x="-126" y="235" as="targetPoint" />
            <Array as="points">
              <mxPoint x="-108" y="245" />
              <mxPoint x="-170" y="245" />
            </Array>
          </mxGeometry>
        </mxCell>
        <mxCell id="a23xOZSOgzIgh4aSkICn-27" style="edgeStyle=orthogonalEdgeStyle;rounded=0;orthogonalLoop=1;jettySize=auto;html=1;entryX=0;entryY=0.5;entryDx=0;entryDy=0;exitX=1;exitY=0.25;exitDx=0;exitDy=0;" edge="1" parent="1" source="a23xOZSOgzIgh4aSkICn-16" target="a23xOZSOgzIgh4aSkICn-26">
          <mxGeometry relative="1" as="geometry">
            <Array as="points">
              <mxPoint x="-40" y="275" />
              <mxPoint x="110" y="275" />
            </Array>
          </mxGeometry>
        </mxCell>
        <mxCell id="a23xOZSOgzIgh4aSkICn-36" style="edgeStyle=orthogonalEdgeStyle;rounded=0;orthogonalLoop=1;jettySize=auto;html=1;" edge="1" parent="1" source="a23xOZSOgzIgh4aSkICn-16" target="a23xOZSOgzIgh4aSkICn-29">
          <mxGeometry relative="1" as="geometry" />
        </mxCell>
        <mxCell id="a23xOZSOgzIgh4aSkICn-43" style="edgeStyle=orthogonalEdgeStyle;rounded=0;orthogonalLoop=1;jettySize=auto;html=1;entryX=0;entryY=1;entryDx=0;entryDy=0;" edge="1" parent="1" source="a23xOZSOgzIgh4aSkICn-16" target="a23xOZSOgzIgh4aSkICn-21">
          <mxGeometry relative="1" as="geometry">
            <Array as="points">
              <mxPoint x="-108" y="245" />
              <mxPoint x="15" y="245" />
            </Array>
          </mxGeometry>
        </mxCell>
        <mxCell id="a23xOZSOgzIgh4aSkICn-46" style="edgeStyle=orthogonalEdgeStyle;rounded=0;orthogonalLoop=1;jettySize=auto;html=1;entryX=0;entryY=0.5;entryDx=0;entryDy=0;exitX=1;exitY=1;exitDx=0;exitDy=0;" edge="1" parent="1" source="a23xOZSOgzIgh4aSkICn-16" target="a23xOZSOgzIgh4aSkICn-44">
          <mxGeometry relative="1" as="geometry">
            <Array as="points">
              <mxPoint x="-20" y="325" />
              <mxPoint x="-20" y="345" />
            </Array>
          </mxGeometry>
        </mxCell>
        <mxCell id="a23xOZSOgzIgh4aSkICn-48" style="edgeStyle=orthogonalEdgeStyle;rounded=0;orthogonalLoop=1;jettySize=auto;html=1;" edge="1" parent="1" source="a23xOZSOgzIgh4aSkICn-16" target="a23xOZSOgzIgh4aSkICn-40">
          <mxGeometry relative="1" as="geometry">
            <Array as="points">
              <mxPoint x="-108" y="365" />
              <mxPoint x="-170" y="365" />
            </Array>
          </mxGeometry>
        </mxCell>
        <mxCell id="a23xOZSOgzIgh4aSkICn-50" style="edgeStyle=orthogonalEdgeStyle;rounded=0;orthogonalLoop=1;jettySize=auto;html=1;entryX=0.5;entryY=0;entryDx=0;entryDy=0;exitX=1;exitY=1;exitDx=0;exitDy=0;" edge="1" parent="1" source="a23xOZSOgzIgh4aSkICn-16" target="a23xOZSOgzIgh4aSkICn-42">
          <mxGeometry relative="1" as="geometry">
            <Array as="points">
              <mxPoint x="-20" y="325" />
              <mxPoint x="-20" y="395" />
            </Array>
          </mxGeometry>
        </mxCell>
        <mxCell id="a23xOZSOgzIgh4aSkICn-170" style="edgeStyle=orthogonalEdgeStyle;rounded=0;orthogonalLoop=1;jettySize=auto;html=1;fillColor=#60a917;strokeColor=#2D7600;" edge="1" parent="1" source="a23xOZSOgzIgh4aSkICn-16" target="a23xOZSOgzIgh4aSkICn-169">
          <mxGeometry relative="1" as="geometry">
            <Array as="points">
              <mxPoint x="-230" y="300" />
              <mxPoint x="-230" y="480" />
              <mxPoint x="-175" y="480" />
            </Array>
          </mxGeometry>
        </mxCell>
        <mxCell id="a23xOZSOgzIgh4aSkICn-16" value="&lt;span style=&quot;font-size: 18px;&quot;&gt;adopter_profile&lt;/span&gt;" style="rounded=0;whiteSpace=wrap;html=1;" vertex="1" parent="1">
          <mxGeometry x="-176" y="275" width="136" height="50" as="geometry" />
        </mxCell>
        <mxCell id="a23xOZSOgzIgh4aSkICn-17" value="&lt;font style=&quot;font-size: 18px;&quot;&gt;user_id&lt;/font&gt;" style="ellipse;whiteSpace=wrap;html=1;" vertex="1" parent="1">
          <mxGeometry x="-350" y="165" width="100" height="60" as="geometry" />
        </mxCell>
        <mxCell id="a23xOZSOgzIgh4aSkICn-18" value="&lt;font style=&quot;font-size: 18px;&quot;&gt;first_name&lt;/font&gt;" style="ellipse;whiteSpace=wrap;html=1;" vertex="1" parent="1">
          <mxGeometry x="-220" y="165" width="100" height="60" as="geometry" />
        </mxCell>
        <mxCell id="a23xOZSOgzIgh4aSkICn-19" value="&lt;font style=&quot;font-size: 18px;&quot;&gt;last_name&lt;/font&gt;" style="ellipse;whiteSpace=wrap;html=1;" vertex="1" parent="1">
          <mxGeometry x="-110" y="165" width="100" height="60" as="geometry" />
        </mxCell>
        <mxCell id="a23xOZSOgzIgh4aSkICn-20" style="edgeStyle=orthogonalEdgeStyle;rounded=0;orthogonalLoop=1;jettySize=auto;html=1;entryX=0.6;entryY=1.017;entryDx=0;entryDy=0;entryPerimeter=0;" edge="1" parent="1" source="a23xOZSOgzIgh4aSkICn-16" target="a23xOZSOgzIgh4aSkICn-19">
          <mxGeometry relative="1" as="geometry">
            <Array as="points">
              <mxPoint x="-108" y="245" />
              <mxPoint x="-60" y="245" />
              <mxPoint x="-60" y="226" />
            </Array>
          </mxGeometry>
        </mxCell>
        <mxCell id="a23xOZSOgzIgh4aSkICn-21" value="&lt;font style=&quot;font-size: 13px;&quot;&gt;phone_number&lt;/font&gt;" style="ellipse;whiteSpace=wrap;html=1;" vertex="1" parent="1">
          <mxGeometry y="165" width="100" height="60" as="geometry" />
        </mxCell>
        <mxCell id="a23xOZSOgzIgh4aSkICn-22" value="&lt;font style=&quot;font-size: 18px;&quot;&gt;email&lt;/font&gt;" style="ellipse;whiteSpace=wrap;html=1;" vertex="1" parent="1">
          <mxGeometry x="110" y="165" width="100" height="60" as="geometry" />
        </mxCell>
        <mxCell id="a23xOZSOgzIgh4aSkICn-25" style="edgeStyle=orthogonalEdgeStyle;rounded=0;orthogonalLoop=1;jettySize=auto;html=1;entryX=0.03;entryY=0.4;entryDx=0;entryDy=0;entryPerimeter=0;" edge="1" parent="1" source="a23xOZSOgzIgh4aSkICn-16" target="a23xOZSOgzIgh4aSkICn-22">
          <mxGeometry relative="1" as="geometry">
            <Array as="points">
              <mxPoint x="-108" y="245" />
              <mxPoint x="113" y="245" />
            </Array>
          </mxGeometry>
        </mxCell>
        <mxCell id="a23xOZSOgzIgh4aSkICn-26" value="&lt;font style=&quot;font-size: 18px;&quot;&gt;bio&lt;/font&gt;" style="ellipse;whiteSpace=wrap;html=1;" vertex="1" parent="1">
          <mxGeometry x="110" y="240" width="100" height="60" as="geometry" />
        </mxCell>
        <mxCell id="a23xOZSOgzIgh4aSkICn-29" value="&lt;font style=&quot;font-size: 18px;&quot;&gt;city&lt;/font&gt;" style="ellipse;whiteSpace=wrap;html=1;" vertex="1" parent="1">
          <mxGeometry x="-350" y="250" width="100" height="60" as="geometry" />
        </mxCell>
        <mxCell id="a23xOZSOgzIgh4aSkICn-30" value="&lt;font style=&quot;font-size: 18px;&quot;&gt;state&lt;/font&gt;" style="ellipse;whiteSpace=wrap;html=1;" vertex="1" parent="1">
          <mxGeometry x="-350" y="325" width="100" height="60" as="geometry" />
        </mxCell>
        <mxCell id="a23xOZSOgzIgh4aSkICn-31" value="&lt;font style=&quot;font-size: 13px;&quot;&gt;address_line_1&lt;/font&gt;" style="ellipse;whiteSpace=wrap;html=1;" vertex="1" parent="1">
          <mxGeometry x="-350" y="395" width="100" height="60" as="geometry" />
        </mxCell>
        <mxCell id="a23xOZSOgzIgh4aSkICn-37" style="edgeStyle=orthogonalEdgeStyle;rounded=0;orthogonalLoop=1;jettySize=auto;html=1;entryX=0.96;entryY=0.233;entryDx=0;entryDy=0;entryPerimeter=0;" edge="1" parent="1" source="a23xOZSOgzIgh4aSkICn-16" target="a23xOZSOgzIgh4aSkICn-30">
          <mxGeometry relative="1" as="geometry">
            <Array as="points">
              <mxPoint x="-234" y="300" />
            </Array>
          </mxGeometry>
        </mxCell>
        <mxCell id="a23xOZSOgzIgh4aSkICn-40" value="&lt;font style=&quot;font-size: 13px;&quot;&gt;address_line_2&lt;/font&gt;" style="ellipse;whiteSpace=wrap;html=1;" vertex="1" parent="1">
          <mxGeometry x="-220" y="395" width="100" height="60" as="geometry" />
        </mxCell>
        <mxCell id="a23xOZSOgzIgh4aSkICn-41" value="&lt;font style=&quot;font-size: 18px;&quot;&gt;zip_code&lt;/font&gt;" style="ellipse;whiteSpace=wrap;html=1;" vertex="1" parent="1">
          <mxGeometry x="-110" y="395" width="100" height="60" as="geometry" />
        </mxCell>
        <mxCell id="a23xOZSOgzIgh4aSkICn-42" value="&lt;font style=&quot;font-size: 18px;&quot;&gt;gender&lt;/font&gt;" style="ellipse;whiteSpace=wrap;html=1;" vertex="1" parent="1">
          <mxGeometry y="395" width="100" height="60" as="geometry" />
        </mxCell>
        <mxCell id="a23xOZSOgzIgh4aSkICn-44" value="&lt;font style=&quot;font-size: 18px;&quot;&gt;pronouns&lt;/font&gt;" style="ellipse;whiteSpace=wrap;html=1;" vertex="1" parent="1">
          <mxGeometry x="110" y="315" width="100" height="60" as="geometry" />
        </mxCell>
        <mxCell id="a23xOZSOgzIgh4aSkICn-45" value="&lt;font style=&quot;font-size: 18px;&quot;&gt;birthday&lt;/font&gt;" style="ellipse;whiteSpace=wrap;html=1;" vertex="1" parent="1">
          <mxGeometry x="110" y="395" width="100" height="60" as="geometry" />
        </mxCell>
        <mxCell id="a23xOZSOgzIgh4aSkICn-47" style="edgeStyle=orthogonalEdgeStyle;rounded=0;orthogonalLoop=1;jettySize=auto;html=1;entryX=0.11;entryY=0.283;entryDx=0;entryDy=0;entryPerimeter=0;" edge="1" parent="1" target="a23xOZSOgzIgh4aSkICn-45">
          <mxGeometry relative="1" as="geometry">
            <mxPoint x="-108" y="335" as="sourcePoint" />
            <Array as="points">
              <mxPoint x="-108" y="365" />
              <mxPoint x="-20" y="365" />
              <mxPoint x="-20" y="345" />
              <mxPoint x="90" y="345" />
              <mxPoint x="90" y="375" />
              <mxPoint x="121" y="375" />
            </Array>
          </mxGeometry>
        </mxCell>
        <mxCell id="a23xOZSOgzIgh4aSkICn-49" style="edgeStyle=orthogonalEdgeStyle;rounded=0;orthogonalLoop=1;jettySize=auto;html=1;entryX=0.42;entryY=-0.033;entryDx=0;entryDy=0;entryPerimeter=0;" edge="1" parent="1" source="a23xOZSOgzIgh4aSkICn-16" target="a23xOZSOgzIgh4aSkICn-41">
          <mxGeometry relative="1" as="geometry">
            <Array as="points">
              <mxPoint x="-108" y="365" />
              <mxPoint x="-68" y="365" />
            </Array>
          </mxGeometry>
        </mxCell>
        <mxCell id="a23xOZSOgzIgh4aSkICn-55" style="edgeStyle=orthogonalEdgeStyle;rounded=0;orthogonalLoop=1;jettySize=auto;html=1;entryX=0.94;entryY=0.267;entryDx=0;entryDy=0;entryPerimeter=0;" edge="1" parent="1" source="a23xOZSOgzIgh4aSkICn-16" target="a23xOZSOgzIgh4aSkICn-31">
          <mxGeometry relative="1" as="geometry">
            <Array as="points">
              <mxPoint x="-210" y="300" />
              <mxPoint x="-210" y="385" />
              <mxPoint x="-236" y="385" />
            </Array>
          </mxGeometry>
        </mxCell>
        <mxCell id="a23xOZSOgzIgh4aSkICn-56" style="edgeStyle=orthogonalEdgeStyle;rounded=0;orthogonalLoop=1;jettySize=auto;html=1;entryX=0.5;entryY=1;entryDx=0;entryDy=0;" edge="1" parent="1" source="a23xOZSOgzIgh4aSkICn-64" target="a23xOZSOgzIgh4aSkICn-65">
          <mxGeometry relative="1" as="geometry">
            <Array as="points">
              <mxPoint x="872" y="245" />
              <mxPoint x="700" y="245" />
            </Array>
          </mxGeometry>
        </mxCell>
        <mxCell id="a23xOZSOgzIgh4aSkICn-57" style="edgeStyle=orthogonalEdgeStyle;rounded=0;orthogonalLoop=1;jettySize=auto;html=1;entryX=0.5;entryY=1;entryDx=0;entryDy=0;" edge="1" parent="1" source="a23xOZSOgzIgh4aSkICn-64" target="a23xOZSOgzIgh4aSkICn-66">
          <mxGeometry relative="1" as="geometry">
            <mxPoint x="854" y="235" as="targetPoint" />
            <Array as="points">
              <mxPoint x="872" y="245" />
              <mxPoint x="810" y="245" />
            </Array>
          </mxGeometry>
        </mxCell>
        <mxCell id="a23xOZSOgzIgh4aSkICn-58" style="edgeStyle=orthogonalEdgeStyle;rounded=0;orthogonalLoop=1;jettySize=auto;html=1;entryX=0;entryY=0.5;entryDx=0;entryDy=0;exitX=1;exitY=0.25;exitDx=0;exitDy=0;" edge="1" parent="1" source="a23xOZSOgzIgh4aSkICn-64" target="a23xOZSOgzIgh4aSkICn-72">
          <mxGeometry relative="1" as="geometry">
            <Array as="points">
              <mxPoint x="940" y="300" />
            </Array>
          </mxGeometry>
        </mxCell>
        <mxCell id="a23xOZSOgzIgh4aSkICn-60" style="edgeStyle=orthogonalEdgeStyle;rounded=0;orthogonalLoop=1;jettySize=auto;html=1;entryX=0;entryY=1;entryDx=0;entryDy=0;" edge="1" parent="1" source="a23xOZSOgzIgh4aSkICn-64" target="a23xOZSOgzIgh4aSkICn-69">
          <mxGeometry relative="1" as="geometry">
            <Array as="points">
              <mxPoint x="872" y="245" />
              <mxPoint x="995" y="245" />
            </Array>
          </mxGeometry>
        </mxCell>
        <mxCell id="a23xOZSOgzIgh4aSkICn-62" style="edgeStyle=orthogonalEdgeStyle;rounded=0;orthogonalLoop=1;jettySize=auto;html=1;" edge="1" parent="1" source="a23xOZSOgzIgh4aSkICn-64" target="a23xOZSOgzIgh4aSkICn-77">
          <mxGeometry relative="1" as="geometry">
            <Array as="points">
              <mxPoint x="960" y="300" />
            </Array>
          </mxGeometry>
        </mxCell>
        <mxCell id="a23xOZSOgzIgh4aSkICn-85" style="edgeStyle=orthogonalEdgeStyle;rounded=0;orthogonalLoop=1;jettySize=auto;html=1;" edge="1" parent="1" source="a23xOZSOgzIgh4aSkICn-64" target="a23xOZSOgzIgh4aSkICn-73">
          <mxGeometry relative="1" as="geometry">
            <Array as="points">
              <mxPoint x="872" y="355" />
            </Array>
          </mxGeometry>
        </mxCell>
        <mxCell id="a23xOZSOgzIgh4aSkICn-86" style="edgeStyle=orthogonalEdgeStyle;rounded=0;orthogonalLoop=1;jettySize=auto;html=1;" edge="1" parent="1" source="a23xOZSOgzIgh4aSkICn-64" target="a23xOZSOgzIgh4aSkICn-74">
          <mxGeometry relative="1" as="geometry">
            <Array as="points">
              <mxPoint x="872" y="355" />
              <mxPoint x="740" y="355" />
            </Array>
          </mxGeometry>
        </mxCell>
        <mxCell id="a23xOZSOgzIgh4aSkICn-88" style="edgeStyle=orthogonalEdgeStyle;rounded=0;orthogonalLoop=1;jettySize=auto;html=1;entryX=0.5;entryY=0;entryDx=0;entryDy=0;" edge="1" parent="1" source="a23xOZSOgzIgh4aSkICn-64" target="a23xOZSOgzIgh4aSkICn-75">
          <mxGeometry relative="1" as="geometry">
            <Array as="points">
              <mxPoint x="872" y="355" />
              <mxPoint x="870" y="355" />
            </Array>
          </mxGeometry>
        </mxCell>
        <mxCell id="a23xOZSOgzIgh4aSkICn-120" style="edgeStyle=orthogonalEdgeStyle;rounded=0;orthogonalLoop=1;jettySize=auto;html=1;fillColor=#60a917;strokeColor=#2D7600;" edge="1" parent="1" source="a23xOZSOgzIgh4aSkICn-64" target="a23xOZSOgzIgh4aSkICn-90">
          <mxGeometry relative="1" as="geometry">
            <Array as="points">
              <mxPoint x="930" y="595" />
            </Array>
          </mxGeometry>
        </mxCell>
        <mxCell id="a23xOZSOgzIgh4aSkICn-64" value="&lt;span style=&quot;font-size: 18px;&quot;&gt;shelter_profile&lt;/span&gt;" style="rounded=0;whiteSpace=wrap;html=1;" vertex="1" parent="1">
          <mxGeometry x="804" y="275" width="136" height="50" as="geometry" />
        </mxCell>
        <mxCell id="a23xOZSOgzIgh4aSkICn-65" value="&lt;font style=&quot;font-size: 18px;&quot;&gt;user_id&lt;/font&gt;" style="ellipse;whiteSpace=wrap;html=1;" vertex="1" parent="1">
          <mxGeometry x="650" y="165" width="100" height="60" as="geometry" />
        </mxCell>
        <mxCell id="a23xOZSOgzIgh4aSkICn-66" value="&lt;font style=&quot;font-size: 15px;&quot;&gt;shelter_name&lt;/font&gt;" style="ellipse;whiteSpace=wrap;html=1;" vertex="1" parent="1">
          <mxGeometry x="760" y="165" width="100" height="60" as="geometry" />
        </mxCell>
        <mxCell id="a23xOZSOgzIgh4aSkICn-67" value="&lt;font style=&quot;font-size: 14px;&quot;&gt;phone_number&lt;/font&gt;" style="ellipse;whiteSpace=wrap;html=1;" vertex="1" parent="1">
          <mxGeometry x="870" y="165" width="100" height="60" as="geometry" />
        </mxCell>
        <mxCell id="a23xOZSOgzIgh4aSkICn-68" style="edgeStyle=orthogonalEdgeStyle;rounded=0;orthogonalLoop=1;jettySize=auto;html=1;entryX=0.6;entryY=1.017;entryDx=0;entryDy=0;entryPerimeter=0;" edge="1" parent="1" source="a23xOZSOgzIgh4aSkICn-64" target="a23xOZSOgzIgh4aSkICn-67">
          <mxGeometry relative="1" as="geometry">
            <Array as="points">
              <mxPoint x="872" y="245" />
              <mxPoint x="920" y="245" />
              <mxPoint x="920" y="226" />
            </Array>
          </mxGeometry>
        </mxCell>
        <mxCell id="a23xOZSOgzIgh4aSkICn-69" value="&lt;font style=&quot;font-size: 18px;&quot;&gt;email&lt;/font&gt;" style="ellipse;whiteSpace=wrap;html=1;" vertex="1" parent="1">
          <mxGeometry x="980" y="165" width="100" height="60" as="geometry" />
        </mxCell>
        <mxCell id="a23xOZSOgzIgh4aSkICn-70" value="&lt;font style=&quot;font-size: 18px;&quot;&gt;zip_code&lt;/font&gt;" style="ellipse;whiteSpace=wrap;html=1;" vertex="1" parent="1">
          <mxGeometry x="1090" y="205" width="100" height="60" as="geometry" />
        </mxCell>
        <mxCell id="a23xOZSOgzIgh4aSkICn-71" style="edgeStyle=orthogonalEdgeStyle;rounded=0;orthogonalLoop=1;jettySize=auto;html=1;entryX=0.05;entryY=0.65;entryDx=0;entryDy=0;entryPerimeter=0;" edge="1" parent="1" source="a23xOZSOgzIgh4aSkICn-64" target="a23xOZSOgzIgh4aSkICn-70">
          <mxGeometry relative="1" as="geometry">
            <Array as="points">
              <mxPoint x="872" y="245" />
              <mxPoint x="1093" y="245" />
              <mxPoint x="1093" y="244" />
            </Array>
          </mxGeometry>
        </mxCell>
        <mxCell id="a23xOZSOgzIgh4aSkICn-72" value="&lt;font style=&quot;font-size: 18px;&quot;&gt;bio&lt;/font&gt;" style="ellipse;whiteSpace=wrap;html=1;" vertex="1" parent="1">
          <mxGeometry x="1090" y="275" width="100" height="60" as="geometry" />
        </mxCell>
        <mxCell id="a23xOZSOgzIgh4aSkICn-73" value="&lt;font style=&quot;font-size: 13px;&quot;&gt;address_line_1&lt;/font&gt;" style="ellipse;whiteSpace=wrap;html=1;" vertex="1" parent="1">
          <mxGeometry x="560" y="395" width="100" height="60" as="geometry" />
        </mxCell>
        <mxCell id="a23xOZSOgzIgh4aSkICn-74" value="&lt;font style=&quot;font-size: 13px;&quot;&gt;address_line_2&lt;/font&gt;" style="ellipse;whiteSpace=wrap;html=1;" vertex="1" parent="1">
          <mxGeometry x="690" y="395" width="100" height="60" as="geometry" />
        </mxCell>
        <mxCell id="a23xOZSOgzIgh4aSkICn-121" value="" style="edgeStyle=orthogonalEdgeStyle;rounded=0;orthogonalLoop=1;jettySize=auto;html=1;" edge="1" parent="1" source="a23xOZSOgzIgh4aSkICn-75" target="a23xOZSOgzIgh4aSkICn-64">
          <mxGeometry relative="1" as="geometry" />
        </mxCell>
        <mxCell id="a23xOZSOgzIgh4aSkICn-75" value="&lt;font style=&quot;font-size: 18px;&quot;&gt;city&lt;/font&gt;" style="ellipse;whiteSpace=wrap;html=1;" vertex="1" parent="1">
          <mxGeometry x="820" y="395" width="100" height="60" as="geometry" />
        </mxCell>
        <mxCell id="a23xOZSOgzIgh4aSkICn-77" value="&lt;font style=&quot;font-size: 18px;&quot;&gt;state&lt;/font&gt;" style="ellipse;whiteSpace=wrap;html=1;" vertex="1" parent="1">
          <mxGeometry x="940" y="395" width="100" height="60" as="geometry" />
        </mxCell>
        <mxCell id="a23xOZSOgzIgh4aSkICn-78" value="&lt;font style=&quot;font-size: 17px;&quot;&gt;years_active&lt;/font&gt;" style="ellipse;whiteSpace=wrap;html=1;" vertex="1" parent="1">
          <mxGeometry x="1060" y="395" width="100" height="60" as="geometry" />
        </mxCell>
        <mxCell id="a23xOZSOgzIgh4aSkICn-83" style="edgeStyle=orthogonalEdgeStyle;rounded=0;orthogonalLoop=1;jettySize=auto;html=1;entryX=0.5;entryY=0;entryDx=0;entryDy=0;" edge="1" parent="1" source="a23xOZSOgzIgh4aSkICn-64" target="a23xOZSOgzIgh4aSkICn-78">
          <mxGeometry relative="1" as="geometry">
            <Array as="points">
              <mxPoint x="872" y="355" />
              <mxPoint x="1110" y="355" />
            </Array>
          </mxGeometry>
        </mxCell>
        <mxCell id="a23xOZSOgzIgh4aSkICn-122" style="edgeStyle=orthogonalEdgeStyle;rounded=0;orthogonalLoop=1;jettySize=auto;html=1;fillColor=#60a917;strokeColor=#2D7600;" edge="1" parent="1" source="a23xOZSOgzIgh4aSkICn-90" target="a23xOZSOgzIgh4aSkICn-99">
          <mxGeometry relative="1" as="geometry">
            <Array as="points">
              <mxPoint x="800" y="595" />
            </Array>
          </mxGeometry>
        </mxCell>
        <mxCell id="a23xOZSOgzIgh4aSkICn-90" value="&lt;font style=&quot;font-size: 18px;&quot;&gt;contains&lt;/font&gt;" style="rhombus;whiteSpace=wrap;html=1;" vertex="1" parent="1">
          <mxGeometry x="830" y="550" width="96" height="90" as="geometry" />
        </mxCell>
        <mxCell id="a23xOZSOgzIgh4aSkICn-91" style="edgeStyle=orthogonalEdgeStyle;rounded=0;orthogonalLoop=1;jettySize=auto;html=1;entryX=0.5;entryY=1;entryDx=0;entryDy=0;" edge="1" parent="1" source="a23xOZSOgzIgh4aSkICn-99" target="a23xOZSOgzIgh4aSkICn-100">
          <mxGeometry relative="1" as="geometry">
            <Array as="points">
              <mxPoint x="808" y="900" />
              <mxPoint x="636" y="900" />
            </Array>
          </mxGeometry>
        </mxCell>
        <mxCell id="a23xOZSOgzIgh4aSkICn-92" style="edgeStyle=orthogonalEdgeStyle;rounded=0;orthogonalLoop=1;jettySize=auto;html=1;entryX=0.5;entryY=1;entryDx=0;entryDy=0;" edge="1" parent="1" source="a23xOZSOgzIgh4aSkICn-99" target="a23xOZSOgzIgh4aSkICn-101">
          <mxGeometry relative="1" as="geometry">
            <mxPoint x="790" y="890" as="targetPoint" />
            <Array as="points">
              <mxPoint x="808" y="900" />
              <mxPoint x="746" y="900" />
            </Array>
          </mxGeometry>
        </mxCell>
        <mxCell id="a23xOZSOgzIgh4aSkICn-93" style="edgeStyle=orthogonalEdgeStyle;rounded=0;orthogonalLoop=1;jettySize=auto;html=1;entryX=0;entryY=0.5;entryDx=0;entryDy=0;exitX=1;exitY=0.25;exitDx=0;exitDy=0;" edge="1" parent="1" source="a23xOZSOgzIgh4aSkICn-99" target="a23xOZSOgzIgh4aSkICn-107">
          <mxGeometry relative="1" as="geometry">
            <Array as="points">
              <mxPoint x="876" y="930" />
              <mxPoint x="1026" y="930" />
            </Array>
          </mxGeometry>
        </mxCell>
        <mxCell id="a23xOZSOgzIgh4aSkICn-94" style="edgeStyle=orthogonalEdgeStyle;rounded=0;orthogonalLoop=1;jettySize=auto;html=1;" edge="1" parent="1" source="a23xOZSOgzIgh4aSkICn-99" target="a23xOZSOgzIgh4aSkICn-108">
          <mxGeometry relative="1" as="geometry" />
        </mxCell>
        <mxCell id="a23xOZSOgzIgh4aSkICn-95" style="edgeStyle=orthogonalEdgeStyle;rounded=0;orthogonalLoop=1;jettySize=auto;html=1;entryX=0;entryY=1;entryDx=0;entryDy=0;" edge="1" parent="1" source="a23xOZSOgzIgh4aSkICn-99" target="a23xOZSOgzIgh4aSkICn-104">
          <mxGeometry relative="1" as="geometry">
            <Array as="points">
              <mxPoint x="808" y="900" />
              <mxPoint x="931" y="900" />
            </Array>
          </mxGeometry>
        </mxCell>
        <mxCell id="a23xOZSOgzIgh4aSkICn-96" style="edgeStyle=orthogonalEdgeStyle;rounded=0;orthogonalLoop=1;jettySize=auto;html=1;entryX=0;entryY=0.5;entryDx=0;entryDy=0;exitX=1;exitY=1;exitDx=0;exitDy=0;" edge="1" parent="1" source="a23xOZSOgzIgh4aSkICn-99" target="a23xOZSOgzIgh4aSkICn-115">
          <mxGeometry relative="1" as="geometry">
            <Array as="points">
              <mxPoint x="896" y="980" />
              <mxPoint x="896" y="1000" />
            </Array>
          </mxGeometry>
        </mxCell>
        <mxCell id="a23xOZSOgzIgh4aSkICn-97" style="edgeStyle=orthogonalEdgeStyle;rounded=0;orthogonalLoop=1;jettySize=auto;html=1;" edge="1" parent="1" source="a23xOZSOgzIgh4aSkICn-99" target="a23xOZSOgzIgh4aSkICn-112">
          <mxGeometry relative="1" as="geometry">
            <Array as="points">
              <mxPoint x="808" y="1020" />
              <mxPoint x="746" y="1020" />
            </Array>
          </mxGeometry>
        </mxCell>
        <mxCell id="a23xOZSOgzIgh4aSkICn-98" style="edgeStyle=orthogonalEdgeStyle;rounded=0;orthogonalLoop=1;jettySize=auto;html=1;entryX=0.5;entryY=0;entryDx=0;entryDy=0;exitX=1;exitY=1;exitDx=0;exitDy=0;" edge="1" parent="1" source="a23xOZSOgzIgh4aSkICn-99" target="a23xOZSOgzIgh4aSkICn-114">
          <mxGeometry relative="1" as="geometry">
            <Array as="points">
              <mxPoint x="896" y="980" />
              <mxPoint x="896" y="1050" />
            </Array>
          </mxGeometry>
        </mxCell>
        <mxCell id="a23xOZSOgzIgh4aSkICn-124" style="edgeStyle=orthogonalEdgeStyle;rounded=0;orthogonalLoop=1;jettySize=auto;html=1;entryX=1;entryY=0.5;entryDx=0;entryDy=0;fillColor=#60a917;strokeColor=#2D7600;" edge="1" parent="1" source="a23xOZSOgzIgh4aSkICn-99" target="a23xOZSOgzIgh4aSkICn-123">
          <mxGeometry relative="1" as="geometry">
            <Array as="points">
              <mxPoint x="402" y="970" />
            </Array>
          </mxGeometry>
        </mxCell>
        <mxCell id="a23xOZSOgzIgh4aSkICn-99" value="&lt;span style=&quot;font-size: 18px;&quot;&gt;pet_profile&lt;/span&gt;" style="rounded=0;whiteSpace=wrap;html=1;" vertex="1" parent="1">
          <mxGeometry x="740" y="930" width="136" height="50" as="geometry" />
        </mxCell>
        <mxCell id="a23xOZSOgzIgh4aSkICn-100" value="&lt;font style=&quot;font-size: 18px;&quot;&gt;pet_uid&lt;/font&gt;" style="ellipse;whiteSpace=wrap;html=1;" vertex="1" parent="1">
          <mxGeometry x="576" y="820" width="100" height="60" as="geometry" />
        </mxCell>
        <mxCell id="a23xOZSOgzIgh4aSkICn-101" value="&lt;font style=&quot;font-size: 18px;&quot;&gt;shelter_id&lt;/font&gt;" style="ellipse;whiteSpace=wrap;html=1;" vertex="1" parent="1">
          <mxGeometry x="686" y="820" width="100" height="60" as="geometry" />
        </mxCell>
        <mxCell id="a23xOZSOgzIgh4aSkICn-102" value="&lt;font style=&quot;font-size: 18px;&quot;&gt;species&lt;/font&gt;" style="ellipse;whiteSpace=wrap;html=1;" vertex="1" parent="1">
          <mxGeometry x="806" y="820" width="100" height="60" as="geometry" />
        </mxCell>
        <mxCell id="a23xOZSOgzIgh4aSkICn-103" style="edgeStyle=orthogonalEdgeStyle;rounded=0;orthogonalLoop=1;jettySize=auto;html=1;entryX=0.6;entryY=1.017;entryDx=0;entryDy=0;entryPerimeter=0;" edge="1" parent="1" source="a23xOZSOgzIgh4aSkICn-99" target="a23xOZSOgzIgh4aSkICn-102">
          <mxGeometry relative="1" as="geometry">
            <Array as="points">
              <mxPoint x="808" y="900" />
              <mxPoint x="856" y="900" />
              <mxPoint x="856" y="881" />
            </Array>
          </mxGeometry>
        </mxCell>
        <mxCell id="a23xOZSOgzIgh4aSkICn-104" value="&lt;font style=&quot;font-size: 18px;&quot;&gt;sex&lt;/font&gt;" style="ellipse;whiteSpace=wrap;html=1;" vertex="1" parent="1">
          <mxGeometry x="916" y="820" width="100" height="60" as="geometry" />
        </mxCell>
        <mxCell id="a23xOZSOgzIgh4aSkICn-105" value="&lt;font style=&quot;font-size: 18px;&quot;&gt;age_stage&lt;/font&gt;" style="ellipse;whiteSpace=wrap;html=1;" vertex="1" parent="1">
          <mxGeometry x="1026" y="820" width="100" height="60" as="geometry" />
        </mxCell>
        <mxCell id="a23xOZSOgzIgh4aSkICn-106" style="edgeStyle=orthogonalEdgeStyle;rounded=0;orthogonalLoop=1;jettySize=auto;html=1;entryX=0.03;entryY=0.4;entryDx=0;entryDy=0;entryPerimeter=0;" edge="1" parent="1" source="a23xOZSOgzIgh4aSkICn-99" target="a23xOZSOgzIgh4aSkICn-105">
          <mxGeometry relative="1" as="geometry">
            <Array as="points">
              <mxPoint x="808" y="900" />
              <mxPoint x="1029" y="900" />
            </Array>
          </mxGeometry>
        </mxCell>
        <mxCell id="a23xOZSOgzIgh4aSkICn-107" value="&lt;font style=&quot;font-size: 18px;&quot;&gt;size&lt;/font&gt;" style="ellipse;whiteSpace=wrap;html=1;" vertex="1" parent="1">
          <mxGeometry x="1026" y="895" width="100" height="60" as="geometry" />
        </mxCell>
        <mxCell id="a23xOZSOgzIgh4aSkICn-108" value="&lt;font style=&quot;font-size: 18px;&quot;&gt;date_birth&lt;/font&gt;" style="ellipse;whiteSpace=wrap;html=1;" vertex="1" parent="1">
          <mxGeometry x="586" y="905" width="100" height="60" as="geometry" />
        </mxCell>
        <mxCell id="a23xOZSOgzIgh4aSkICn-109" value="&lt;font style=&quot;font-size: 13px;&quot;&gt;Illnes_disabilities&lt;/font&gt;" style="ellipse;whiteSpace=wrap;html=1;" vertex="1" parent="1">
          <mxGeometry x="586" y="980" width="100" height="60" as="geometry" />
        </mxCell>
        <mxCell id="a23xOZSOgzIgh4aSkICn-110" value="&lt;font style=&quot;font-size: 13px;&quot;&gt;personality&lt;/font&gt;" style="ellipse;whiteSpace=wrap;html=1;" vertex="1" parent="1">
          <mxGeometry x="586" y="1050" width="100" height="60" as="geometry" />
        </mxCell>
        <mxCell id="a23xOZSOgzIgh4aSkICn-111" style="edgeStyle=orthogonalEdgeStyle;rounded=0;orthogonalLoop=1;jettySize=auto;html=1;entryX=0.96;entryY=0.233;entryDx=0;entryDy=0;entryPerimeter=0;" edge="1" parent="1" source="a23xOZSOgzIgh4aSkICn-99" target="a23xOZSOgzIgh4aSkICn-109">
          <mxGeometry relative="1" as="geometry">
            <Array as="points">
              <mxPoint x="682" y="955" />
            </Array>
          </mxGeometry>
        </mxCell>
        <mxCell id="a23xOZSOgzIgh4aSkICn-112" value="&lt;font style=&quot;font-size: 13px;&quot;&gt;photo_link&lt;/font&gt;" style="ellipse;whiteSpace=wrap;html=1;" vertex="1" parent="1">
          <mxGeometry x="696" y="1050" width="100" height="60" as="geometry" />
        </mxCell>
        <mxCell id="a23xOZSOgzIgh4aSkICn-113" value="&lt;font style=&quot;font-size: 18px;&quot;&gt;bio&lt;/font&gt;" style="ellipse;whiteSpace=wrap;html=1;" vertex="1" parent="1">
          <mxGeometry x="806" y="1050" width="100" height="60" as="geometry" />
        </mxCell>
        <mxCell id="a23xOZSOgzIgh4aSkICn-114" value="&lt;font style=&quot;font-size: 18px;&quot;&gt;neutered&lt;/font&gt;" style="ellipse;whiteSpace=wrap;html=1;" vertex="1" parent="1">
          <mxGeometry x="916" y="1050" width="100" height="60" as="geometry" />
        </mxCell>
        <mxCell id="a23xOZSOgzIgh4aSkICn-115" value="&lt;font style=&quot;font-size: 18px;&quot;&gt;weight&lt;/font&gt;" style="ellipse;whiteSpace=wrap;html=1;" vertex="1" parent="1">
          <mxGeometry x="1026" y="970" width="100" height="60" as="geometry" />
        </mxCell>
        <mxCell id="a23xOZSOgzIgh4aSkICn-116" value="&lt;font style=&quot;font-size: 18px;&quot;&gt;spayed&lt;/font&gt;" style="ellipse;whiteSpace=wrap;html=1;" vertex="1" parent="1">
          <mxGeometry x="1026" y="1050" width="100" height="60" as="geometry" />
        </mxCell>
        <mxCell id="a23xOZSOgzIgh4aSkICn-117" style="edgeStyle=orthogonalEdgeStyle;rounded=0;orthogonalLoop=1;jettySize=auto;html=1;entryX=0.11;entryY=0.283;entryDx=0;entryDy=0;entryPerimeter=0;" edge="1" parent="1" target="a23xOZSOgzIgh4aSkICn-116">
          <mxGeometry relative="1" as="geometry">
            <mxPoint x="808" y="990" as="sourcePoint" />
            <Array as="points">
              <mxPoint x="808" y="1020" />
              <mxPoint x="896" y="1020" />
              <mxPoint x="896" y="1000" />
              <mxPoint x="1006" y="1000" />
              <mxPoint x="1006" y="1030" />
              <mxPoint x="1037" y="1030" />
            </Array>
          </mxGeometry>
        </mxCell>
        <mxCell id="a23xOZSOgzIgh4aSkICn-118" style="edgeStyle=orthogonalEdgeStyle;rounded=0;orthogonalLoop=1;jettySize=auto;html=1;entryX=0.42;entryY=-0.033;entryDx=0;entryDy=0;entryPerimeter=0;" edge="1" parent="1" source="a23xOZSOgzIgh4aSkICn-99" target="a23xOZSOgzIgh4aSkICn-113">
          <mxGeometry relative="1" as="geometry">
            <Array as="points">
              <mxPoint x="808" y="1020" />
              <mxPoint x="848" y="1020" />
            </Array>
          </mxGeometry>
        </mxCell>
        <mxCell id="a23xOZSOgzIgh4aSkICn-119" style="edgeStyle=orthogonalEdgeStyle;rounded=0;orthogonalLoop=1;jettySize=auto;html=1;entryX=0.94;entryY=0.267;entryDx=0;entryDy=0;entryPerimeter=0;" edge="1" parent="1" source="a23xOZSOgzIgh4aSkICn-99" target="a23xOZSOgzIgh4aSkICn-110">
          <mxGeometry relative="1" as="geometry">
            <Array as="points">
              <mxPoint x="706" y="955" />
              <mxPoint x="706" y="1040" />
              <mxPoint x="680" y="1040" />
            </Array>
          </mxGeometry>
        </mxCell>
        <mxCell id="a23xOZSOgzIgh4aSkICn-155" style="edgeStyle=orthogonalEdgeStyle;rounded=0;orthogonalLoop=1;jettySize=auto;html=1;entryX=1;entryY=0.5;entryDx=0;entryDy=0;fillColor=#60a917;strokeColor=#2D7600;" edge="1" parent="1" source="a23xOZSOgzIgh4aSkICn-123" target="a23xOZSOgzIgh4aSkICn-133">
          <mxGeometry relative="1" as="geometry">
            <Array as="points">
              <mxPoint x="-64" y="965" />
            </Array>
          </mxGeometry>
        </mxCell>
        <mxCell id="a23xOZSOgzIgh4aSkICn-123" value="&lt;font style=&quot;font-size: 18px;&quot;&gt;contains&lt;/font&gt;" style="rhombus;whiteSpace=wrap;html=1;" vertex="1" parent="1">
          <mxGeometry x="306" y="920" width="96" height="90" as="geometry" />
        </mxCell>
        <mxCell id="a23xOZSOgzIgh4aSkICn-128" style="edgeStyle=orthogonalEdgeStyle;rounded=0;orthogonalLoop=1;jettySize=auto;html=1;" edge="1" parent="1" source="a23xOZSOgzIgh4aSkICn-133" target="a23xOZSOgzIgh4aSkICn-142">
          <mxGeometry relative="1" as="geometry" />
        </mxCell>
        <mxCell id="a23xOZSOgzIgh4aSkICn-158" style="edgeStyle=orthogonalEdgeStyle;rounded=0;orthogonalLoop=1;jettySize=auto;html=1;" edge="1" parent="1" source="a23xOZSOgzIgh4aSkICn-133" target="a23xOZSOgzIgh4aSkICn-141">
          <mxGeometry relative="1" as="geometry" />
        </mxCell>
        <mxCell id="a23xOZSOgzIgh4aSkICn-159" style="edgeStyle=orthogonalEdgeStyle;rounded=0;orthogonalLoop=1;jettySize=auto;html=1;" edge="1" parent="1" source="a23xOZSOgzIgh4aSkICn-133">
          <mxGeometry relative="1" as="geometry">
            <mxPoint x="-344" y="900" as="targetPoint" />
          </mxGeometry>
        </mxCell>
        <mxCell id="a23xOZSOgzIgh4aSkICn-160" style="edgeStyle=orthogonalEdgeStyle;rounded=0;orthogonalLoop=1;jettySize=auto;html=1;" edge="1" parent="1" source="a23xOZSOgzIgh4aSkICn-133">
          <mxGeometry relative="1" as="geometry">
            <mxPoint x="-234" y="900" as="targetPoint" />
          </mxGeometry>
        </mxCell>
        <mxCell id="a23xOZSOgzIgh4aSkICn-161" style="edgeStyle=orthogonalEdgeStyle;rounded=0;orthogonalLoop=1;jettySize=auto;html=1;entryX=0.5;entryY=1;entryDx=0;entryDy=0;" edge="1" parent="1" source="a23xOZSOgzIgh4aSkICn-133" target="a23xOZSOgzIgh4aSkICn-136">
          <mxGeometry relative="1" as="geometry" />
        </mxCell>
        <mxCell id="a23xOZSOgzIgh4aSkICn-162" style="edgeStyle=orthogonalEdgeStyle;rounded=0;orthogonalLoop=1;jettySize=auto;html=1;entryX=0.5;entryY=1;entryDx=0;entryDy=0;" edge="1" parent="1" source="a23xOZSOgzIgh4aSkICn-133" target="a23xOZSOgzIgh4aSkICn-138">
          <mxGeometry relative="1" as="geometry" />
        </mxCell>
        <mxCell id="a23xOZSOgzIgh4aSkICn-163" style="edgeStyle=orthogonalEdgeStyle;rounded=0;orthogonalLoop=1;jettySize=auto;html=1;entryX=0.5;entryY=1;entryDx=0;entryDy=0;" edge="1" parent="1" source="a23xOZSOgzIgh4aSkICn-133" target="a23xOZSOgzIgh4aSkICn-139">
          <mxGeometry relative="1" as="geometry" />
        </mxCell>
        <mxCell id="a23xOZSOgzIgh4aSkICn-133" value="&lt;span style=&quot;font-size: 18px;&quot;&gt;request&lt;/span&gt;" style="rounded=0;whiteSpace=wrap;html=1;" vertex="1" parent="1">
          <mxGeometry x="-200" y="930" width="136" height="50" as="geometry" />
        </mxCell>
        <mxCell id="a23xOZSOgzIgh4aSkICn-134" value="&lt;font style=&quot;font-size: 18px;&quot;&gt;user_id&lt;/font&gt;" style="ellipse;whiteSpace=wrap;html=1;" vertex="1" parent="1">
          <mxGeometry x="-394" y="830" width="100" height="60" as="geometry" />
        </mxCell>
        <mxCell id="a23xOZSOgzIgh4aSkICn-135" value="&lt;font style=&quot;font-size: 18px;&quot;&gt;first_name&lt;/font&gt;" style="ellipse;whiteSpace=wrap;html=1;" vertex="1" parent="1">
          <mxGeometry x="-280" y="830" width="100" height="60" as="geometry" />
        </mxCell>
        <mxCell id="a23xOZSOgzIgh4aSkICn-136" value="&lt;font style=&quot;font-size: 18px;&quot;&gt;last_name&lt;/font&gt;" style="ellipse;whiteSpace=wrap;html=1;" vertex="1" parent="1">
          <mxGeometry x="-164" y="830" width="100" height="60" as="geometry" />
        </mxCell>
        <mxCell id="a23xOZSOgzIgh4aSkICn-138" value="&lt;font style=&quot;font-size: 13px;&quot;&gt;phone_number&lt;/font&gt;" style="ellipse;whiteSpace=wrap;html=1;" vertex="1" parent="1">
          <mxGeometry x="-44" y="830" width="100" height="60" as="geometry" />
        </mxCell>
        <mxCell id="a23xOZSOgzIgh4aSkICn-139" value="&lt;font style=&quot;font-size: 18px;&quot;&gt;email&lt;/font&gt;" style="ellipse;whiteSpace=wrap;html=1;" vertex="1" parent="1">
          <mxGeometry x="76" y="830" width="100" height="60" as="geometry" />
        </mxCell>
        <mxCell id="a23xOZSOgzIgh4aSkICn-141" value="&lt;font style=&quot;font-size: 18px;&quot;&gt;bio&lt;/font&gt;" style="ellipse;whiteSpace=wrap;html=1;" vertex="1" parent="1">
          <mxGeometry x="-84" y="1030" width="100" height="60" as="geometry" />
        </mxCell>
        <mxCell id="a23xOZSOgzIgh4aSkICn-142" value="&lt;font style=&quot;font-size: 18px;&quot;&gt;city&lt;/font&gt;" style="ellipse;whiteSpace=wrap;html=1;" vertex="1" parent="1">
          <mxGeometry x="-280" y="1030" width="100" height="60" as="geometry" />
        </mxCell>
        <mxCell id="a23xOZSOgzIgh4aSkICn-165" style="edgeStyle=orthogonalEdgeStyle;rounded=0;orthogonalLoop=1;jettySize=auto;html=1;entryX=0;entryY=0.75;entryDx=0;entryDy=0;fillColor=#60a917;strokeColor=#2D7600;" edge="1" parent="1" source="a23xOZSOgzIgh4aSkICn-164" target="a23xOZSOgzIgh4aSkICn-64">
          <mxGeometry relative="1" as="geometry">
            <Array as="points">
              <mxPoint x="500" y="575" />
              <mxPoint x="500" y="313" />
            </Array>
          </mxGeometry>
        </mxCell>
        <mxCell id="a23xOZSOgzIgh4aSkICn-168" style="edgeStyle=orthogonalEdgeStyle;rounded=0;orthogonalLoop=1;jettySize=auto;html=1;entryX=1;entryY=0;entryDx=0;entryDy=0;fillColor=#60a917;strokeColor=#2D7600;" edge="1" parent="1" source="a23xOZSOgzIgh4aSkICn-164" target="a23xOZSOgzIgh4aSkICn-133">
          <mxGeometry relative="1" as="geometry">
            <Array as="points">
              <mxPoint x="-50" y="575" />
              <mxPoint x="-50" y="810" />
            </Array>
          </mxGeometry>
        </mxCell>
        <mxCell id="a23xOZSOgzIgh4aSkICn-164" value="&lt;font style=&quot;font-size: 18px;&quot;&gt;contains&lt;/font&gt;" style="rhombus;whiteSpace=wrap;html=1;" vertex="1" parent="1">
          <mxGeometry x="318" y="530" width="96" height="90" as="geometry" />
        </mxCell>
        <mxCell id="a23xOZSOgzIgh4aSkICn-169" value="&lt;font style=&quot;font-size: 13px;&quot;&gt;Applying to adopt&lt;/font&gt;" style="rhombus;whiteSpace=wrap;html=1;" vertex="1" parent="1">
          <mxGeometry x="-240" y="600" width="130" height="110" as="geometry" />
        </mxCell>
        <mxCell id="a23xOZSOgzIgh4aSkICn-172" style="edgeStyle=orthogonalEdgeStyle;rounded=0;orthogonalLoop=1;jettySize=auto;html=1;entryX=0.181;entryY=0.037;entryDx=0;entryDy=0;entryPerimeter=0;fillColor=#60a917;strokeColor=#2D7600;" edge="1" parent="1" source="a23xOZSOgzIgh4aSkICn-169" target="a23xOZSOgzIgh4aSkICn-133">
          <mxGeometry relative="1" as="geometry" />
        </mxCell>
        <mxCell id="a23xOZSOgzIgh4aSkICn-173" style="edgeStyle=orthogonalEdgeStyle;rounded=0;orthogonalLoop=1;jettySize=auto;html=1;exitX=0.5;exitY=1;exitDx=0;exitDy=0;" edge="1" parent="1" source="a23xOZSOgzIgh4aSkICn-75" target="a23xOZSOgzIgh4aSkICn-75">
          <mxGeometry relative="1" as="geometry" />
        </mxCell>
        <mxCell id="a23xOZSOgzIgh4aSkICn-174" value="&lt;font style=&quot;color: light-dark(rgb(0, 0, 0), rgb(0, 153, 0)); font-size: 22px;&quot;&gt;1&lt;/font&gt;" style="text;html=1;align=center;verticalAlign=middle;whiteSpace=wrap;rounded=0;" vertex="1" parent="1">
          <mxGeometry x="364" y="160" width="60" height="40" as="geometry" />
        </mxCell>
        <mxCell id="a23xOZSOgzIgh4aSkICn-177" value="&lt;font style=&quot;font-size: 22px; color: light-dark(rgb(0, 255, 0), rgb(0, 153, 0));&quot;&gt;N&lt;/font&gt;" style="text;html=1;align=center;verticalAlign=middle;whiteSpace=wrap;rounded=0;" vertex="1" parent="1">
          <mxGeometry x="-50" y="780" width="60" height="40" as="geometry" />
        </mxCell>
        <mxCell id="a23xOZSOgzIgh4aSkICn-178" value="&lt;div style=&quot;text-align: center;&quot;&gt;&lt;font color=&quot;#32b532&quot;&gt;&lt;span style=&quot;font-size: 22px;&quot;&gt;N&lt;/span&gt;&lt;/font&gt;&lt;/div&gt;" style="text;whiteSpace=wrap;html=1;" vertex="1" parent="1">
          <mxGeometry x="780" y="245" width="50" height="50" as="geometry" />
        </mxCell>
        <mxCell id="a23xOZSOgzIgh4aSkICn-181" value="&lt;font style=&quot;font-size: 22px; color: light-dark(rgb(0, 153, 0), rgb(0, 153, 0));&quot;&gt;1&lt;/font&gt;" style="text;html=1;align=center;verticalAlign=middle;whiteSpace=wrap;rounded=0;" vertex="1" parent="1">
          <mxGeometry x="760" y="315" width="60" height="40" as="geometry" />
        </mxCell>
        <mxCell id="a23xOZSOgzIgh4aSkICn-182" value="&lt;font style=&quot;font-size: 22px; color: light-dark(rgb(0, 153, 0), rgb(0, 153, 0));&quot;&gt;1&lt;/font&gt;" style="text;html=1;align=center;verticalAlign=middle;whiteSpace=wrap;rounded=0;" vertex="1" parent="1">
          <mxGeometry x="-180" y="470" width="60" height="40" as="geometry" />
        </mxCell>
        <mxCell id="a23xOZSOgzIgh4aSkICn-185" value="&lt;font style=&quot;font-size: 22px; color: light-dark(rgb(0, 255, 0), rgb(0, 153, 0));&quot;&gt;N&lt;/font&gt;" style="text;html=1;align=center;verticalAlign=middle;whiteSpace=wrap;rounded=0;" vertex="1" parent="1">
          <mxGeometry x="-236" y="780" width="60" height="40" as="geometry" />
        </mxCell>
        <mxCell id="a23xOZSOgzIgh4aSkICn-186" value="&lt;font style=&quot;color: light-dark(rgb(0, 0, 0), rgb(0, 153, 0)); font-size: 22px;&quot;&gt;1&lt;/font&gt;" style="text;html=1;align=center;verticalAlign=middle;whiteSpace=wrap;rounded=0;" vertex="1" parent="1">
          <mxGeometry x="516" y="915" width="60" height="40" as="geometry" />
        </mxCell>
        <mxCell id="a23xOZSOgzIgh4aSkICn-187" value="&lt;font style=&quot;color: light-dark(rgb(0, 0, 0), rgb(0, 153, 0)); font-size: 22px;&quot;&gt;N&lt;/font&gt;" style="text;html=1;align=center;verticalAlign=middle;whiteSpace=wrap;rounded=0;" vertex="1" parent="1">
          <mxGeometry x="130" y="920" width="60" height="40" as="geometry" />
        </mxCell>
        <mxCell id="a23xOZSOgzIgh4aSkICn-188" value="&lt;font style=&quot;font-size: 22px; color: light-dark(rgb(0, 153, 0), rgb(0, 153, 0));&quot;&gt;1&lt;/font&gt;" style="text;html=1;align=center;verticalAlign=middle;whiteSpace=wrap;rounded=0;" vertex="1" parent="1">
          <mxGeometry x="870" y="460" width="60" height="40" as="geometry" />
        </mxCell>
        <mxCell id="a23xOZSOgzIgh4aSkICn-189" value="&lt;font style=&quot;font-size: 22px; color: light-dark(rgb(0, 255, 0), rgb(0, 153, 0));&quot;&gt;N&lt;/font&gt;" style="text;html=1;align=center;verticalAlign=middle;whiteSpace=wrap;rounded=0;" vertex="1" parent="1">
          <mxGeometry x="736" y="770" width="60" height="40" as="geometry" />
        </mxCell>
      </root>
    </mxGraphModel>
  </diagram>
</mxfile>
